<?xml version="1.0" encoding="iso-8859-1"?>
<!-- Generator: Adobe Illustrator 19.0.0, SVG Export Plug-In . SVG Version: 6.00 Build 0)  -->
<svg version="1.1" id="Layer_1" xmlns="http://www.w3.org/2000/svg" xmlns:xlink="http://www.w3.org/1999/xlink" x="0px" y="0px"
	 viewBox="0 0 512 512" style="enable-background:new 0 0 512 512;" xml:space="preserve">
<g>
	<rect x="225.97" style="fill:#9A4C00;" width="73.113" height="78.291"/>
	<rect x="225.97" y="108.205" style="fill:#9A4C00;" width="73.113" height="78.322"/>
	<rect x="225.97" y="216.442" style="fill:#9A4C00;" width="73.113" height="295.558"/>
</g>
<g>
	<polygon style="fill:#A17852;" points="406.07,86.972 337.099,133.308 141.932,133.308 141.932,40.636 337.099,40.636 	"/>
	<polygon style="fill:#A17852;" points="378.687,163.516 378.687,256.188 183.991,256.188 105.93,209.852 183.991,163.516 	"/>
</g>
<g>
	<rect x="262.537" style="fill:#723700;" width="36.556" height="78.291"/>
	<rect x="262.537" y="108.205" style="fill:#723700;" width="36.556" height="78.322"/>
	<rect x="262.537" y="216.442" style="fill:#723700;" width="36.556" height="295.558"/>
</g>
<g>
	<rect x="262.537" y="163.516" style="fill:#735538;" width="116.154" height="92.673"/>
	<polygon style="fill:#735538;" points="337.099,133.308 262.532,133.308 262.532,40.636 337.099,40.636 406.07,86.972 	"/>
</g>
<rect x="122.378" y="480.621" style="fill:#57555C;" width="280.319" height="31.379"/>
<rect x="262.537" y="480.621" style="fill:#2B292C;" width="140.159" height="31.379"/>
<g>
</g>
<g>
</g>
<g>
</g>
<g>
</g>
<g>
</g>
<g>
</g>
<g>
</g>
<g>
</g>
<g>
</g>
<g>
</g>
<g>
</g>
<g>
</g>
<g>
</g>
<g>
</g>
<g>
</g>
</svg>
