<?xml version="1.0" encoding="iso-8859-1"?>
<!-- Generator: Adobe Illustrator 19.0.0, SVG Export Plug-In . SVG Version: 6.00 Build 0)  -->
<svg version="1.1" id="Layer_1" xmlns="http://www.w3.org/2000/svg" xmlns:xlink="http://www.w3.org/1999/xlink" x="0px" y="0px"
	 viewBox="0 0 512 512" style="enable-background:new 0 0 512 512;" xml:space="preserve">
<polygon style="fill:#5B5D6E;" points="223.248,63.143 223.248,97.487 252.216,120.809 252.216,63.143 "/>
<path style="fill:#707487;" d="M147.409,45.224L12.815,152.331v27.961L145.286,74.887c0.777-0.617,1.592-0.746,2.138-0.746
	c0.551,0,1.372,0.131,2.153,0.759l130.83,105.344v-27.926L147.409,45.224z"/>
<g>
	<rect x="309.203" y="428.869" style="fill:#E4EAF6;" width="135.922" height="37.153"/>
	<rect x="309.203" y="383.519" style="fill:#E4EAF6;" width="135.922" height="38.49"/>
	<rect x="309.203" y="337.701" style="fill:#E4EAF6;" width="135.922" height="38.959"/>
</g>
<path style="fill:#C7CFE2;" d="M168.662,394.764l5.518,0.191c0.88,0.031,1.733,0.397,2.355,1.019
	c0.618,0.614,0.987,1.512,0.987,2.404c0,0.894-0.374,1.802-0.999,2.427c-0.601,0.601-1.456,0.963-2.343,0.995l-5.517,0.191v65.743
	h57.158V328.13h-57.158V394.764z"/>
<g>
	<rect x="68.213" y="328.133" style="fill:#739CCD;" width="57.295" height="38.788"/>
	<rect x="68.213" y="190.851" style="fill:#739CCD;" width="57.295" height="38.799"/>
	<rect x="168.662" y="190.851" style="fill:#739CCD;" width="57.158" height="38.799"/>
</g>
<g>
	<rect x="68.213" y="236.509" style="fill:#B4E1FA;" width="57.295" height="38.799"/>
	<rect x="168.662" y="236.509" style="fill:#B4E1FA;" width="57.158" height="38.799"/>
	<rect x="68.213" y="373.78" style="fill:#B4E1FA;" width="57.295" height="38.799"/>
</g>
<g>
	<path style="fill:#AF6964;" d="M147.409,81.967l-117.1,93.172l0.554,3.32c0.032,0.192,0.048,0.359,0.048,0.509v288.763h130.892
		V324.698c0-1.891,1.539-3.43,3.429-3.43h64.017c1.891,0,3.429,1.539,3.429,3.43v143.033h29.436V178.968
		c0-0.193,0.023-0.41,0.07-0.645l0.686-3.403L147.409,81.967z M132.367,416.004c0,1.891-1.539,3.43-3.429,3.43H64.783
		c-1.891,0-3.429-1.539-3.429-3.43v-91.304c0-1.891,1.539-3.429,3.429-3.429h64.154c1.891,0,3.429,1.539,3.429,3.429
		C132.367,324.699,132.367,416.004,132.367,416.004z M132.367,278.733c0,1.891-1.539,3.43-3.429,3.43H64.783
		c-1.891,0-3.429-1.539-3.429-3.43v-91.316c0-1.891,1.539-3.429,3.429-3.429h64.154c1.891,0,3.429,1.539,3.429,3.429
		C132.367,187.417,132.367,278.733,132.367,278.733z M232.679,278.733c0,1.891-1.539,3.43-3.429,3.43h-64.017
		c-1.891,0-3.429-1.539-3.429-3.43v-91.316c0-1.891,1.539-3.429,3.429-3.429h64.017c1.891,0,3.429,1.539,3.429,3.429V278.733z"/>
	<path style="fill:#AF6964;" d="M475.27,306.831v153.47H457.7V334.267c0-5.053-4.104-9.145-9.145-9.145H305.773
		c-5.041,0-9.145,4.092-9.145,9.145v126.034h-21.937v-153.47H475.27z"/>
</g>
<path d="M502.855,462.016c5.041,0,9.145,4.093,9.145,9.145s-4.104,9.145-9.145,9.145H9.145c-5.053,0-9.145-4.092-9.145-9.145
	s4.093-9.145,9.145-9.145h9.191V191.966l-3.258,2.595c-2.744,2.195-6.505,2.606-9.66,1.086c-3.167-1.52-5.179-4.733-5.179-8.242
	v-36.73c0-2.789,1.269-5.419,3.452-7.156L141.729,33.684c3.349-2.664,8.094-2.652,11.432,0.023l57.513,46.321V59.714
	c0-5.041,4.104-9.145,9.145-9.145h35.827c5.041,0,9.145,4.104,9.145,9.145v63.88l24.784,19.96c2.161,1.738,3.407,4.355,3.407,7.122
	v36.73c0,3.521-2.012,6.733-5.19,8.254c-1.257,0.606-2.606,0.892-3.955,0.892c-2.046,0-4.07-0.686-5.727-2.023l-3.418-2.744v96.757
	h209.725c5.053,0,9.145,4.093,9.145,9.145v164.33H502.855z M475.27,460.301v-153.47H274.691v153.47h21.937V334.267
	c0-5.053,4.104-9.145,9.145-9.145h142.781c5.041,0,9.145,4.092,9.145,9.145v126.034H475.27z M439.409,460.301V434.58h-124.49v25.721
	H439.409z M439.409,416.289v-27.059h-124.49v27.059H439.409z M439.409,370.94v-27.527h-124.49v27.527H439.409z M274.691,168.303
	v-13.249L147.388,52.546L18.531,155.088v13.352l123.199-98.026c3.349-2.664,8.094-2.652,11.432,0.034L274.691,168.303z
	 M256.583,177.197L147.388,89.287L36.501,177.517c0.08,0.48,0.126,0.96,0.126,1.452v283.047h119.461V324.699
	c0-5.053,4.104-9.145,9.145-9.145h64.017c5.053,0,9.145,4.092,9.145,9.145v137.317H256.4v-164.33V178.969
	C256.4,178.363,256.469,177.768,256.583,177.197z M246.5,108.87V68.859h-17.536v25.893L246.5,108.87z M220.105,462.016V333.844
	h-45.727v55.398c2.309,0.08,4.55,1.04,6.185,2.675c1.703,1.692,2.675,4.058,2.675,6.459c0,2.412-0.972,4.767-2.675,6.47
	c-1.635,1.635-3.875,2.584-6.185,2.664v54.506L220.105,462.016L220.105,462.016z"/>
<path d="M238.395,187.417v91.316c0,5.041-4.093,9.145-9.145,9.145h-64.017c-5.041,0-9.145-4.104-9.145-9.145v-91.316
	c0-5.053,4.104-9.145,9.145-9.145h64.017C234.303,178.271,238.395,182.364,238.395,187.417z M220.105,269.587V242.22h-45.727v27.367
	H220.105z M220.105,223.929v-27.367h-45.727v27.367H220.105z"/>
<path d="M138.083,324.699v91.304c0,5.053-4.093,9.145-9.145,9.145H64.783c-5.053,0-9.145-4.093-9.145-9.145v-91.304
	c0-5.053,4.093-9.145,9.145-9.145h64.154C133.99,315.554,138.083,319.646,138.083,324.699z M119.792,406.858v-27.367H73.928v27.367
	H119.792z M119.792,361.2v-27.356H73.928V361.2H119.792z"/>
<path d="M138.083,187.417v91.316c0,5.041-4.093,9.145-9.145,9.145H64.783c-5.053,0-9.145-4.104-9.145-9.145v-91.316
	c0-5.053,4.093-9.145,9.145-9.145h64.154C133.99,178.271,138.083,182.364,138.083,187.417z M119.792,269.587V242.22H73.928v27.367
	H119.792z M119.792,223.929v-27.367H73.928v27.367H119.792z"/>
<g>
</g>
<g>
</g>
<g>
</g>
<g>
</g>
<g>
</g>
<g>
</g>
<g>
</g>
<g>
</g>
<g>
</g>
<g>
</g>
<g>
</g>
<g>
</g>
<g>
</g>
<g>
</g>
<g>
</g>
</svg>
