<?xml version="1.0" encoding="iso-8859-1"?>
<!-- Generator: Adobe Illustrator 19.0.0, SVG Export Plug-In . SVG Version: 6.00 Build 0)  -->
<svg version="1.1" id="Layer_1" xmlns="http://www.w3.org/2000/svg" xmlns:xlink="http://www.w3.org/1999/xlink" x="0px" y="0px"
	 viewBox="0 0 512.001 512.001" style="enable-background:new 0 0 512.001 512.001;" xml:space="preserve">
<path style="fill:#57565C;" d="M224.558,464.305c-7.125,0-13.694-4.656-15.805-11.838L86.61,36.947L48.688,48.095
	c-8.737,2.562-17.894-2.432-20.462-11.165c-2.567-8.734,2.431-17.894,11.165-20.462L93.127,0.673
	c8.735-2.565,17.893,2.431,20.462,11.165l122.142,415.521l194.007-57.029c8.737-2.569,17.894,2.43,20.462,11.164
	c2.567,8.734-2.431,17.894-11.165,20.462l-209.821,61.677C227.662,464.088,226.097,464.305,224.558,464.305z"/>
<path style="fill:#F53000;" d="M464.997,360.423L272.733,416.94c-14.631,4.301-29.978-4.073-34.279-18.705l-56.568-192.441
	c-4.301-14.631,4.073-29.978,18.705-34.279l192.441-56.568c14.631-4.301,29.978,4.073,34.279,18.705l56.517,192.264
	C486.462,340.981,479.725,356.094,464.997,360.423z"/>
<path style="fill:#BF2717;" d="M461.148,361.555l-99.248,29.282l-72.142-245.424l99.248-29.282
	c16.345-5.927,33.508-0.887,39.487,21.547l54.201,184.39C487.648,338.921,482.607,356.544,461.148,361.555z"/>
<path style="fill:#2D2E30;" d="M223.543,386.869c-34.499,0-62.565,28.067-62.565,62.565c0,34.499,28.066,62.566,62.565,62.566
	s62.565-28.067,62.565-62.566C286.109,414.935,258.042,386.869,223.543,386.869z M223.543,463.798
	c-7.92,0-14.364-6.443-14.364-14.364c0-7.919,6.442-14.364,14.364-14.364c7.922,0,14.364,6.443,14.364,14.364
	C237.907,457.354,231.463,463.798,223.543,463.798z"/>
<path style="fill:#1D1D1F;" d="M223.543,386.869v48.202c7.92,0,14.364,6.443,14.364,14.364c0,7.92-6.442,14.364-14.364,14.364
	v48.202c34.499,0,62.565-28.067,62.565-62.566C286.109,414.935,258.042,386.869,223.543,386.869z"/>
<path style="fill:#C5C5CA;" d="M223.543,423.055c-14.546,0-26.379,11.833-26.379,26.379c0,14.546,11.833,26.379,26.379,26.379
	s26.379-11.833,26.379-26.379C249.922,434.888,238.089,423.055,223.543,423.055z"/>
<path style="fill:#8D8D91;" d="M223.543,432.945c12.855,0,23.585,9.246,25.907,21.434c0.306-1.602,0.472-3.255,0.472-4.945
	c0-14.546-11.833-26.379-26.379-26.379s-26.379,11.834-26.379,26.379c0,1.69,0.166,3.342,0.471,4.945
	C199.958,442.19,210.688,432.945,223.543,432.945z"/>
<g>
</g>
<g>
</g>
<g>
</g>
<g>
</g>
<g>
</g>
<g>
</g>
<g>
</g>
<g>
</g>
<g>
</g>
<g>
</g>
<g>
</g>
<g>
</g>
<g>
</g>
<g>
</g>
<g>
</g>
</svg>
