<?xml version="1.0" encoding="iso-8859-1"?>
<!-- Generator: Adobe Illustrator 19.0.0, SVG Export Plug-In . SVG Version: 6.00 Build 0)  -->
<svg version="1.1" id="Layer_1" xmlns="http://www.w3.org/2000/svg" xmlns:xlink="http://www.w3.org/1999/xlink" x="0px" y="0px"
	 viewBox="0 0 504.123 504.123" style="enable-background:new 0 0 504.123 504.123;" xml:space="preserve">
<g>
	<path style="fill:#6C9C9E;" d="M157.649,81.904c-0.709,0.701-1.835,0.701-2.544,0l0,0c-0.693-0.701-0.693-1.835,0-2.536
		l19.007-19.007c0.709-0.701,1.843-0.709,2.544,0l0,0c0.701,0.701,0.701,1.835,0,2.528L157.649,81.904z"/>
	<path style="fill:#6C9C9E;" d="M207.494,32.051c-0.701,0.701-1.827,0.701-2.536,0l0,0c-0.693-0.701-0.693-1.835,0-2.528
		l19.015-19.015c0.701-0.701,1.827-0.701,2.536,0l0,0c0.693,0.701,0.693,1.827,0,2.536L207.494,32.051z"/>
</g>
<g>
	<path style="fill:#ABD0D6;" d="M193.843,111.623c0,1.237-1.008,2.245-2.245,2.245l0,0c-1.245,0-2.245-1.008-2.245-2.245V74.877
		c0-1.229,1-2.237,2.245-2.237l0,0c1.237,0,2.245,1.008,2.245,2.245V111.623z"/>
	<path style="fill:#ABD0D6;" d="M125.377,43.173c-1.237,0-2.237,0.992-2.237,2.237l0,0c0,1.237,1.008,2.237,2.237,2.237
		l36.746,0.008c1.237-0.008,2.229-1.008,2.245-2.245l0,0c-0.016-1.237-1.008-2.237-2.245-2.245L125.377,43.173z"/>
</g>
<path style="fill:#7DA4AD;" d="M233.74,142.903c0.063-1.016-0.323-2.009-1.048-2.733L96.839,4.316
	c-0.733-0.733-1.717-1.111-2.741-1.048c-1.008,0.055-1.961,0.544-2.607,1.347c-31.736,39.881-28.459,97.178,7.633,133.262
	c36.092,36.092,93.381,39.369,133.262,7.625C233.188,144.872,233.677,143.927,233.74,142.903z"/>
<path style="fill:#88B1B7;" d="M94.098,3.276c-1.008,0.055-1.961,0.544-2.607,1.347c-31.736,39.881-28.459,97.178,7.633,133.262
	c0.142,0.134,0.276,0.252,0.402,0.386h24.781V31.783L96.839,4.324C96.106,3.591,95.122,3.213,94.098,3.276z"/>
<path style="fill:#527275;" d="M232.692,140.169L96.839,4.316c-0.733-0.733-1.717-1.111-2.741-1.048
	c-1.008,0.055-1.961,0.544-2.607,1.347c-3.56,4.474-6.664,9.184-9.342,14.052l136.184,136.184c4.86-2.686,9.57-5.782,14.045-9.358
	c0.803-0.63,1.292-1.575,1.355-2.599C233.803,141.886,233.417,140.894,232.692,140.169z"/>
<path style="fill:#2B4649;" d="M91.49,4.615c-3.56,4.474-6.664,9.184-9.342,14.052l136.184,136.184
	c4.86-2.686,9.57-5.782,14.045-9.358"/>
<path style="fill:#426166;" d="M86.457,11.571c-1.536,2.324-2.97,4.695-4.301,7.097l42.157,42.149V37.423L91.498,4.615
	c-1.733,2.19-3.356,4.435-4.884,6.727C86.552,11.429,86.504,11.5,86.457,11.571z"/>
<path style="fill:#EA3C13;" d="M198.199,73.664c-2.276,2.269-5.963,2.269-8.239,0L163.352,47.04c-2.284-2.269-2.284-5.955,0-8.231
	l0,0c2.276-2.276,5.955-2.276,8.231,0l26.616,26.616C200.476,67.694,200.476,71.388,198.199,73.664L198.199,73.664z"/>
<path style="fill:#C63205;" d="M198.199,65.425c2.276,2.269,2.276,5.963,0,8.239l0,0c-2.276,2.269-5.963,2.269-8.239,0
	L163.352,47.04"/>
<path style="fill:#EA3C13;" d="M209.14,62.731c-2.284,2.269-5.971,2.269-8.247,0l-26.616-26.624c-2.276-2.269-2.276-5.963,0-8.239
	l0,0c2.276-2.261,5.963-2.261,8.231,0l26.632,26.624C211.409,56.768,211.409,60.455,209.14,62.731L209.14,62.731z"/>
<path style="fill:#C63205;" d="M209.14,54.492c2.269,2.269,2.269,5.963,0,8.239l0,0c-2.284,2.269-5.971,2.269-8.247,0
	l-26.616-26.624"/>
<circle style="fill:#EA3C13;" cx="202.279" cy="34.768" r="6.16"/>
<path style="fill:#C63205;" d="M202.248,28.601c3.395,0,6.152,2.765,6.152,6.16c0,3.411-2.757,6.168-6.16,6.16"/>
<g>
	<circle style="fill:#ABD0D6;" cx="86" cy="54.516" r="2.914"/>
	<circle style="fill:#ABD0D6;" cx="99.785" cy="68.3" r="2.914"/>
	<circle style="fill:#ABD0D6;" cx="113.569" cy="82.085" r="2.914"/>
	<circle style="fill:#ABD0D6;" cx="127.354" cy="95.869" r="2.914"/>
	<circle style="fill:#ABD0D6;" cx="141.139" cy="109.654" r="2.914"/>
	<circle style="fill:#ABD0D6;" cx="154.939" cy="123.423" r="2.907"/>
	<circle style="fill:#ABD0D6;" cx="168.7" cy="137.223" r="2.907"/>
	<circle style="fill:#ABD0D6;" cx="182.493" cy="151.008" r="2.914"/>
</g>
<path style="fill:#88B1B7;" d="M117.398,222.515v-52.578c0-8.917-7.207-16.132-16.124-16.132c-8.909,0-16.14,7.215-16.14,16.132
	v52.578H117.398z"/>
<path style="fill:#679899;" d="M117.398,222.515v-52.578c0-8.917-7.207-16.132-16.124-16.132c-8.909,0-16.14,7.215-16.14,16.132"/>
<circle style="fill:#ABD0D6;" cx="101.274" cy="140.658" r="23.001"/>
<path id="SVGCleanerId_0" style="fill:#99C4C6;" d="M117.539,124.392c8.988,8.988,8.988,23.544,0,32.532
	c-8.98,8.98-23.536,8.988-32.524,0"/>
<circle style="fill:#ABD0D6;" cx="101.274" cy="140.658" r="23.001"/>
<path style="fill:#548282;" d="M101.274,153.812c-8.893,0-16.108,7.2-16.132,16.085c4.143,4.088,9.846,6.617,16.132,6.617
	c6.294,0,11.973-2.528,16.124-6.609C117.382,161.012,110.167,153.812,101.274,153.812z"/>
<g>
	<path id="SVGCleanerId_0_1_" style="fill:#99C4C6;" d="M117.539,124.392c8.988,8.988,8.988,23.544,0,32.532
		c-8.98,8.98-23.536,8.988-32.524,0"/>
</g>
<circle style="fill:#7DA4AD;" cx="101.274" cy="140.666" r="12.989"/>
<path style="fill:#88B1B7;" d="M110.458,149.85c-5.073,5.081-13.296,5.081-18.369,0c-5.081-5.073-5.081-13.296,0-18.377"/>
<path style="fill:#2B4649;" d="M143.628,219.159c0,1.851-1.504,3.363-3.371,3.363H62.291c-1.851,0-3.363-1.505-3.363-3.363l0,0
	c0-1.851,1.504-3.363,3.363-3.363h77.966C142.123,215.796,143.628,217.3,143.628,219.159L143.628,219.159z"/>
<path style="fill:#EA3C13;" d="M383.031,265.46c0,9.437-7.664,17.093-17.109,17.093H38.88c-9.444,0-17.101-7.656-17.101-17.093
	v-27.79c0-9.444,7.656-17.101,17.101-17.101h327.05c9.444,0,17.109,7.656,17.109,17.101v27.79H383.031z"/>
<path style="fill:#C63205;" d="M383.031,270.383c0,9.437-7.664,17.093-17.109,17.093H38.88c-9.444,0-17.101-7.656-17.101-17.093
	v-27.79c0-9.444,7.656-17.101,17.101-17.101h327.05c9.444,0,17.109,7.656,17.109,17.101v27.79H383.031z"/>
<path style="fill:#AA2102;" d="M500.035,443.596c0,6.727-5.451,12.178-12.178,12.178H18.306c-6.727,0-12.186-5.451-12.186-12.178
	v-79.935c0-6.727,5.451-12.178,12.186-12.178h461.383c6.727,0,12.186,5.443,12.186,12.178L500.035,443.596z"/>
<path style="fill:#6E7577;" d="M504.123,459.854c0,4.506-3.655,8.168-8.16,8.168H8.16c-4.506,0-8.16-3.663-8.16-8.168v-5.096
	c0-4.513,3.655-8.168,8.16-8.168h487.802c4.506,0,8.16,3.655,8.16,8.168V459.854z"/>
<path d="M50.373,453.293c0-27.884,22.623-50.507,50.523-50.507c27.892,0,50.507,22.623,50.507,50.507"/>
<path style="fill:#8E8E8E;" d="M153.435,453.293h-4.072c0-26.726-21.756-48.467-48.475-48.467
	c-26.734,0-48.475,21.748-48.475,48.467h-4.096c0-28.979,23.591-52.547,52.571-52.547
	C129.859,400.746,153.435,424.321,153.435,453.293z"/>
<circle style="fill:#203547;" cx="100.88" cy="455.278" r="45.584"/>
<path style="fill:#122130;" d="M133.104,423.03c17.818,17.81,17.818,46.655,0,64.465c-17.818,17.802-46.663,17.802-64.465,0"/>
<circle style="fill:#6E7577;" cx="100.888" cy="455.278" r="28.672"/>
<path style="fill:#4C5456;" d="M121.147,434.987c11.209,11.209,11.193,29.349,0,40.543c-11.185,11.185-29.334,11.201-40.543,0"/>
<circle style="fill:#CED8DD;" cx="100.88" cy="455.278" r="25.096"/>
<path style="fill:#B2BBC1;" d="M118.619,437.515c9.799,9.799,9.799,25.687,0,35.486c-9.799,9.799-25.679,9.791-35.478,0"/>
<path style="opacity:0.2;fill:#888F91;enable-background:new    ;" d="M112.538,455.262c0,6.428-5.23,13.509-11.65,13.509
	c-6.428,0-11.65-7.073-11.65-13.509s5.222-11.65,11.65-11.65C107.307,443.612,112.538,448.827,112.538,455.262z"/>
<circle style="fill:#E7EFF2;" cx="100.888" cy="455.278" r="11.65"/>
<path style="fill:#DAE6EA;" d="M100.888,443.612c6.42,0,11.65,5.215,11.65,11.65c0,6.428-5.23,11.65-11.65,11.65"/>
<path style="fill:#666E70;" d="M100.888,430.166c-1.15,0-2.269,0.118-3.371,0.26c0.473,3.608,1.796,6.215,3.371,6.215
	c1.568,0,2.891-2.607,3.363-6.215C103.148,430.276,102.03,430.166,100.888,430.166z"/>
<path style="fill:#535A5B;" d="M100.888,436.641c1.568,0,2.891-2.607,3.363-6.215c-1.103-0.15-2.213-0.26-3.363-0.26"/>
<path style="fill:#666E70;" d="M97.524,480.027c2.229,0.307,4.474,0.307,6.727,0c-0.488-3.576-1.804-6.144-3.363-6.144
	C99.304,473.883,98.013,476.451,97.524,480.027z"/>
<path style="fill:#535A5B;" d="M104.243,480.027c-0.488-3.576-1.804-6.144-3.363-6.144"/>
<path style="fill:#666E70;" d="M80.92,440.091c2.899,2.213,5.679,3.119,6.782,2.009c1.126-1.111,0.213-3.891-2.001-6.782
	C83.905,436.688,82.306,438.287,80.92,440.091z"/>
<path style="fill:#535A5B;" d="M87.71,442.092c1.126-1.111,0.213-3.891-2.001-6.782"/>
<path style="fill:#666E70;" d="M120.753,470.378c-2.859-2.166-5.6-3.056-6.711-1.953c-1.111,1.111-0.213,3.86,1.953,6.727
	c0.89-0.685,1.804-1.339,2.615-2.143C119.43,472.189,120.076,471.276,120.753,470.378z"/>
<path style="fill:#535A5B;" d="M118.619,473.001c0.819-0.819,1.465-1.733,2.135-2.623c-2.859-2.166-5.6-3.056-6.711-1.953"/>
<path style="fill:#666E70;" d="M76.044,458.641c3.6-0.488,6.215-1.804,6.215-3.379c0.008-1.568-2.615-2.891-6.215-3.379
	c-0.158,1.111-0.26,2.229-0.26,3.379C75.784,456.404,75.894,457.523,76.044,458.641z"/>
<path style="fill:#535A5B;" d="M82.259,455.262c0.008-1.568-2.615-2.891-6.215-3.379c-0.158,1.111-0.26,2.229-0.26,3.379"/>
<path style="fill:#666E70;" d="M119.493,455.262c0,1.56,2.576,2.875,6.136,3.363c0.323-2.237,0.323-4.482,0.024-6.727
	C122.069,452.387,119.493,453.694,119.493,455.262z"/>
<path style="fill:#535A5B;" d="M125.653,451.906c-3.584,0.488-6.16,1.796-6.16,3.363"/>
<path style="fill:#666E70;" d="M80.935,470.441c1.371,1.804,2.97,3.395,4.766,4.766c2.213-2.891,3.119-5.679,2.001-6.774
	C86.599,467.322,83.842,468.227,80.935,470.441z"/>
<path style="fill:#535A5B;" d="M85.709,475.214c2.213-2.891,3.119-5.679,2.001-6.774"/>
<path style="fill:#666E70;" d="M116.059,435.318c-2.213,2.883-3.119,5.671-2.016,6.774c1.111,1.118,3.891,0.205,6.782-2.001
	C119.461,438.287,117.862,436.688,116.059,435.318z"/>
<path style="fill:#535A5B;" d="M116.059,435.318c-2.213,2.883-3.119,5.671-2.016,6.774"/>
<path d="M349.964,453.293c0-27.884,22.623-50.507,50.523-50.507c27.884,0,50.515,22.623,50.515,50.507"/>
<path style="fill:#8E8E8E;" d="M453.033,453.293h-4.08c0-26.726-21.74-48.467-48.467-48.467s-48.482,21.748-48.482,48.467h-4.08
	c0-28.979,23.583-52.547,52.563-52.547S453.033,424.321,453.033,453.293z"/>
<circle style="fill:#203547;" cx="400.463" cy="455.278" r="45.584"/>
<path style="fill:#122130;" d="M432.711,423.03c17.81,17.81,17.81,46.655,0,64.465c-17.818,17.802-46.671,17.802-64.465,0"/>
<circle style="fill:#6E7577;" cx="400.463" cy="455.278" r="28.672"/>
<path style="fill:#4C5456;" d="M420.738,434.987c11.217,11.209,11.185,29.349,0,40.543c-11.185,11.185-29.334,11.201-40.535,0"/>
<circle style="fill:#CED8DD;" cx="400.463" cy="455.278" r="25.096"/>
<path style="fill:#B2BBC1;" d="M418.209,437.515c9.807,9.799,9.807,25.687,0,35.486c-9.791,9.799-25.679,9.791-35.486,0"/>
<path style="opacity:0.2;fill:#888F91;enable-background:new    ;" d="M412.136,455.262c0,6.428-5.23,13.509-11.658,13.509
	s-11.65-7.073-11.65-13.509s5.222-11.65,11.65-11.65S412.136,448.827,412.136,455.262z"/>
<circle style="fill:#E7EFF2;" cx="400.463" cy="455.278" r="11.658"/>
<path style="fill:#DAE6EA;" d="M400.479,443.612c6.428,0,11.658,5.215,11.658,11.65c0,6.428-5.23,11.65-11.658,11.65"/>
<path style="fill:#666E70;" d="M400.479,430.166c-1.15,0-2.261,0.118-3.371,0.26c0.473,3.608,1.796,6.215,3.371,6.215
	c1.568,0,2.899-2.607,3.371-6.215C402.747,430.276,401.629,430.166,400.479,430.166z"/>
<path style="fill:#535A5B;" d="M400.479,436.641c1.568,0,2.899-2.607,3.371-6.215c-1.103-0.15-2.213-0.26-3.371-0.26"/>
<path style="fill:#666E70;" d="M397.115,480.027c2.229,0.307,4.482,0.307,6.727,0c-0.504-3.576-1.812-6.144-3.371-6.144
	C398.903,473.883,397.603,476.451,397.115,480.027z"/>
<path style="fill:#535A5B;" d="M403.85,480.027c-0.504-3.576-1.812-6.144-3.371-6.144"/>
<path style="fill:#666E70;" d="M380.518,440.091c2.899,2.213,5.679,3.119,6.79,2.009c1.118-1.111,0.205-3.891-2.009-6.782
	C383.496,436.688,381.905,438.287,380.518,440.091z"/>
<path style="fill:#535A5B;" d="M387.308,442.092c1.118-1.111,0.205-3.891-2.009-6.782"/>
<path style="fill:#666E70;" d="M420.344,470.378c-2.859-2.166-5.593-3.056-6.711-1.953c-1.118,1.111-0.221,3.86,1.953,6.727
	c0.89-0.685,1.812-1.339,2.615-2.143C419.021,472.189,419.667,471.276,420.344,470.378z"/>
<path style="fill:#535A5B;" d="M418.209,473.001c0.819-0.819,1.465-1.733,2.135-2.623c-2.859-2.166-5.593-3.056-6.711-1.953"/>
<path style="fill:#666E70;" d="M375.635,458.641c3.608-0.488,6.215-1.804,6.215-3.379c0.016-1.568-2.607-2.891-6.215-3.379
	c-0.142,1.111-0.244,2.229-0.244,3.379C375.383,456.404,375.493,457.523,375.635,458.641z"/>
<path style="fill:#535A5B;" d="M381.85,455.262c0.016-1.568-2.607-2.891-6.215-3.379c-0.142,1.111-0.244,2.229-0.244,3.379"/>
<path style="fill:#666E70;" d="M419.076,455.262c0,1.56,2.584,2.875,6.152,3.363c0.315-2.237,0.315-4.482,0.016-6.727
	C421.66,452.387,419.076,453.694,419.076,455.262z"/>
<path style="fill:#535A5B;" d="M425.244,451.906c-3.584,0.488-6.168,1.796-6.168,3.363"/>
<path style="fill:#666E70;" d="M380.534,470.441c1.378,1.804,2.962,3.395,4.766,4.766c2.213-2.891,3.119-5.679,2.009-6.774
	C386.19,467.322,383.433,468.227,380.534,470.441z"/>
<path style="fill:#535A5B;" d="M385.3,475.214c2.213-2.891,3.119-5.679,2.009-6.774"/>
<path style="fill:#666E70;" d="M415.665,435.318c-2.213,2.883-3.135,5.671-2.024,6.774c1.118,1.118,3.891,0.205,6.782-2.001
	C419.052,438.287,417.445,436.688,415.665,435.318z"/>
<path style="fill:#535A5B;" d="M415.665,435.318c-2.213,2.883-3.135,5.671-2.024,6.774"/>
<g>
	<path style="fill:#C63205;" d="M450.04,364.953c0,9.019-7.318,16.329-16.329,16.329H31.634c-9.019,0-16.321-7.318-16.321-16.329
		V253.715c0-9.019,7.31-16.329,16.321-16.329h353.091c9.019,0,16.329,7.318,16.329,16.329L450.04,364.953z"/>
	<path style="fill:#C63205;" d="M472.489,371.578c0,9.027-7.326,16.329-16.329,16.329h-43.882c-9.019,0-16.321-7.31-16.321-16.329
		v-10.705c0-9.027,7.31-16.329,16.321-16.329h43.882c9.011,0,16.329,7.31,16.329,16.329V371.578z"/>
</g>
<path style="fill:#DB0940;" d="M19.401,426.952c0,4.506-3.663,4.332-8.176,4.332l0,0c-4.513,0-8.16-3.639-8.16-8.16v-36.738
	c0-4.506,3.647-8.16,8.16-8.16l0,0c4.513,0,8.176,3.655,8.176,8.16V426.952z"/>
<path style="fill:#BC043D;" d="M11.225,378.218L11.225,378.218c4.513,0,8.176,3.655,8.176,8.16v40.566
	c0,4.506-3.663,4.332-8.176,4.332l0,0"/>
<path style="fill:#51859B;" d="M440.604,343.536l-37.675-85.591H285.294c-5.018,0-9.074,4.072-9.074,9.066v68.001
	c0,5.002,4.064,9.066,9.074,9.066H437.91C438.863,344.079,439.737,343.811,440.604,343.536z"/>
<g>
	<path style="fill:#81B6C9;" d="M329.878,257.945l-53.658,53.658v23.418c0,4.183,2.899,7.554,6.751,8.602l85.662-85.669h-38.754
		V257.945z"/>
	<polygon style="fill:#81B6C9;" points="315.857,257.945 292.352,257.945 276.212,274.077 276.212,297.574 	"/>
	<path style="fill:#81B6C9;" d="M402.156,344.079h35.753c0.953,0,1.827-0.268,2.694-0.543l-11.587-26.325L402.156,344.079z"/>
	<polygon style="fill:#81B6C9;" points="407.103,267.445 402.92,257.945 397.47,257.945 311.327,344.079 330.461,344.079 	"/>
</g>
<path style="fill:#C63205;" d="M406.552,349.774c0.662,2.544-0.874,5.136-3.419,5.79l0,0c-2.552,0.662-5.136-0.866-5.797-3.419
	l-27.664-107.394c-0.646-2.544,0.874-5.144,3.419-5.79l0,0c2.56-0.67,5.151,0.859,5.805,3.419L406.552,349.774z"/>
<g>
	<path style="fill:#AA2102;" d="M300.709,364.284c0,3.001-2.45,5.435-5.443,5.435H282.34c-3.001,0-5.443-2.442-5.443-5.435l0,0
		c0-3.009,2.45-5.443,5.443-5.443h12.926C298.26,358.833,300.709,361.275,300.709,364.284L300.709,364.284z"/>
	<path style="fill:#AA2102;" d="M206.824,364.284c0,3.001-2.442,5.435-5.435,5.435h-12.934c-3.009,0-5.435-2.442-5.435-5.435l0,0
		c0-3.009,2.434-5.443,5.435-5.443h12.934C204.383,358.833,206.824,361.275,206.824,364.284L206.824,364.284z"/>
</g>
<path style="fill:#C63205;" d="M240.152,432.955c0,1.969-1.599,3.568-3.568,3.568l0,0c-1.977,0-3.568-1.599-3.568-3.568V261.521
	c0-1.969,1.591-3.576,3.568-3.576l0,0c1.969,0,3.568,1.607,3.568,3.576V432.955z"/>
<g>
	<path style="fill:#AA2102;" d="M55.107,360.534c0,0.93-0.772,1.701-1.709,1.701H42.52c-0.937,0-1.701-0.772-1.701-1.701l0,0
		c0-0.937,0.764-1.709,1.701-1.709h10.878C54.335,358.825,55.107,359.597,55.107,360.534L55.107,360.534z"/>
	<path style="fill:#AA2102;" d="M55.107,369.38c0,0.93-0.772,1.694-1.709,1.694H42.52c-0.937,0-1.701-0.764-1.701-1.694l0,0
		c0-0.945,0.764-1.709,1.701-1.709h10.878C54.335,367.671,55.107,368.435,55.107,369.38L55.107,369.38z"/>
	<path style="fill:#AA2102;" d="M55.107,378.218c0,0.93-0.772,1.701-1.709,1.701H42.52c-0.937,0-1.701-0.772-1.701-1.701l0,0
		c0-0.945,0.764-1.709,1.701-1.709h10.878C54.335,376.509,55.107,377.273,55.107,378.218L55.107,378.218z"/>
</g>
<path style="fill:#FFA300;" d="M496.64,418.359c0,3.765-3.048,6.806-6.806,6.806l0,0c-3.749,0-6.798-3.048-6.798-6.806v-33.343
	c0-3.757,3.056-6.798,6.798-6.798l0,0c3.765,0,6.806,3.048,6.806,6.798V418.359z"/>
<path style="fill:#FF7300;" d="M489.834,425.164L489.834,425.164c-3.749,0-6.798-3.048-6.798-6.806v-33.343
	c0-3.757,3.056-6.798,6.798-6.798l0,0"/>
<path style="fill:#C63205;" d="M214.859,343.843c0,3.757-3.064,6.798-6.814,6.798H44.757c-3.749,0-6.814-3.048-6.814-6.798v-86.174
	c0-3.773,3.072-6.814,6.814-6.814h163.289c3.757,0,6.814,3.041,6.814,6.814L214.859,343.843L214.859,343.843z"/>
<path style="fill:#AA2102;" d="M208.045,250.856c3.757,0,6.814,3.041,6.814,6.814v86.166c0,3.757-3.064,6.798-6.814,6.798H44.757
	c-3.749,0-6.814-3.048-6.814-6.798"/>
<g>
	<path style="fill:#FFFFFF;" d="M97.414,271.415H59.613c-1.197,0-2.158,0.961-2.158,2.15v55.367c0,1.213,0.961,2.19,2.158,2.19h8.09
		c1.15,0,2.127-0.977,2.127-2.19v-23.229h13.666c1.229,0,2.198-0.953,2.198-2.15v-7.601c0-1.182-0.969-2.15-2.198-2.15H69.829
		v-10.295h27.585c1.182,0,2.15-0.985,2.15-2.182v-7.751C99.572,272.376,98.603,271.415,97.414,271.415z"/>
	<path style="fill:#FFFFFF;" d="M143.029,271.722c-0.307-0.819-1.126-1.355-1.993-1.355c-0.882,0-1.662,0.536-2.009,1.355
		L119.115,319.7c-0.41-0.496-0.961-0.819-1.654-0.819h-13.202v-45.308c0-1.189-0.937-2.15-2.15-2.15h-8.074
		c-1.182,0-2.15,0.961-2.15,2.15v55.367c0,1.213,0.969,2.19,2.15,2.19h23.434c0,0,0.032-0.032,0.063-0.032
		c0,0,0.063,0.032,0.126,0.032h8.539c0.874,0,1.662-0.559,2.001-1.347l5.12-12.516h15.447l5.167,12.516
		c0.307,0.788,1.126,1.347,2.001,1.347h8.539h0.063c1.182,0,2.15-0.977,2.15-2.19c0-0.433-0.126-0.843-0.378-1.182L143.029,271.722z
		 M141.036,297.369l3.308,8.42h-6.624L141.036,297.369z"/>
	<path style="fill:#FFFFFF;" d="M193.182,270.367h-50.609c-1.197,0-2.158,0.961-2.158,2.158v7.759c0,1.213,0.961,2.182,2.158,2.182
		h26.703v46.151c0,1.182,0.945,2.166,2.158,2.166h8.058c1.197,0,2.158-0.985,2.158-2.166v-46.151h11.532
		c1.197,0,2.15-0.969,2.15-2.182v-7.759C195.34,271.328,194.387,270.367,193.182,270.367z"/>
</g>
<path style="fill:#FFE600;" d="M132.372,271.155c-0.126-0.236-0.37-0.362-0.622-0.362h-2.718c-0.339,0-0.63,0.197-0.725,0.496
	l-2.292,5.774l-2.276-5.774c-0.126-0.299-0.402-0.496-0.709-0.496h-2.725c0,0-0.063,0-0.134,0.016l-0.071-0.016h-9.216
	c-0.441,0-0.788,0.362-0.788,0.772v2.599c0,0.433,0.347,0.788,0.788,0.788h2.497v9.925c0,0.418,0.378,0.78,0.78,0.78h2.725
	c0.417,0,0.788-0.362,0.788-0.78v-9.925h2.434c0.252,0,0.504-0.142,0.63-0.354l4.569,10.894c0.126,0.299,0.41,0.488,0.709,0.488
	c0.323,0,0.599-0.189,0.733-0.488l5.695-13.619C132.521,271.627,132.521,271.383,132.372,271.155z"/>
<g>
</g>
<g>
</g>
<g>
</g>
<g>
</g>
<g>
</g>
<g>
</g>
<g>
</g>
<g>
</g>
<g>
</g>
<g>
</g>
<g>
</g>
<g>
</g>
<g>
</g>
<g>
</g>
<g>
</g>
</svg>
